Sweynheim & Pannartz-ProtoRoman115R.ufo
<glyph name="B" format="1">
  <advance width="618"/>
  <unicode hex="0042"/>
  <outline>
    <contour>
      <point x="391" y="405" type="curve"/>
      <point x="388" y="387" type="line"/>
      <point x="423" y="417"/>
      <point x="498" y="472"/>
      <point x="522" y="518" type="curve"/>
      <point x="542" y="647"/>
      <point x="439" y="707"/>
      <point x="336" y="707" type="curve"/>
      <point x="246" y="707"/>
      <point x="140" y="696"/>
      <point x="42" y="699" type="curve"/>
      <point x="42" y="664" type="line"/>
      <point x="112" y="656" type="line"/>
      <point x="112" y="501"/>
      <point x="115" y="196"/>
      <point x="110" y="41" type="curve"/>
      <point x="40" y="31" type="line"/>
      <point x="40" y="-4" type="line"/>
      <point x="134" y="5"/>
      <point x="213" y="-1"/>
      <point x="317" y="-1" type="curve"/>
      <point x="477" y="-1"/>
      <point x="578" y="69"/>
      <point x="578" y="184" type="curve"/>
      <point x="578" y="294"/>
      <point x="485" y="354"/>
    </contour>
    <contour>
      <point x="194" y="405" type="curve"/>
      <point x="194" y="350" type="line"/>
      <point x="236" y="363"/>
      <point x="294" y="367"/>
      <point x="330" y="367" type="curve"/>
      <point x="398" y="367"/>
      <point x="476" y="291"/>
      <point x="476" y="186" type="curve"/>
      <point x="476" y="94"/>
      <point x="412" y="34"/>
      <point x="306" y="34" type="curve"/>
      <point x="262" y="34"/>
      <point x="230" y="45"/>
      <point x="214" y="53" type="curve"/>
      <point x="214" y="52"/>
      <point x="209" y="548"/>
      <point x="214" y="665" type="curve"/>
      <point x="338" y="677"/>
      <point x="431" y="645"/>
      <point x="431" y="535" type="curve"/>
      <point x="431" y="466"/>
      <point x="363" y="399"/>
      <point x="276" y="399" type="curve"/>
      <point x="249" y="399"/>
      <point x="221" y="399"/>
    </contour>
  </outline>
</glyph>
<glyph name="E" format="1">
  <advance width="801"/>
  <unicode hex="0045"/>
  <outline>
    <contour>
      <point x="44" y="700" type="curve"/>
      <point x="40" y="663" type="line"/>
      <point x="139" y="655"/>
      <point x="139" y="655"/>
      <point x="142" y="614" type="curve"/>
      <point x="151" y="495"/>
      <point x="151" y="244"/>
      <point x="145" y="101" type="curve"/>
      <point x="143" y="51"/>
      <point x="143" y="41"/>
      <point x="47" y="17" type="curve"/>
      <point x="56" y="-15" type="line"/>
      <point x="119" y="4"/>
      <point x="489" y="6"/>
      <point x="684" y="0" type="curve"/>
      <point x="695" y="-17" type="line"/>
      <point x="713" y="-17" type="line"/>
      <point x="717" y="22"/>
      <point x="736" y="94"/>
      <point x="766" y="182" type="curve"/>
      <point x="737" y="191" type="line"/>
      <point x="679" y="54"/>
      <point x="621" y="48"/>
      <point x="251" y="48" type="curve"/>
      <point x="245" y="163"/>
      <point x="250" y="539"/>
      <point x="250" y="652" type="curve"/>
      <point x="515" y="651" type="line" smooth="yes"/>
      <point x="621" y="651"/>
      <point x="619" y="620"/>
      <point x="625" y="571" type="curve"/>
      <point x="654" y="571" type="line"/>
      <point x="692" y="713" type="line"/>
      <point x="537" y="704"/>
      <point x="261" y="686"/>
    </contour>
    <contour>
      <point x="224" y="382" type="line"/>
      <point x="224" y="333" type="line"/>
      <point x="521" y="330" type="line" smooth="yes"/>
      <point x="578" y="330"/>
      <point x="560" y="309"/>
      <point x="560" y="183" type="curve"/>
      <point x="596" y="179" type="line"/>
      <point x="606" y="290"/>
      <point x="630" y="392"/>
      <point x="646" y="493" type="curve"/>
      <point x="611" y="496" type="line"/>
      <point x="583" y="390"/>
      <point x="581" y="386"/>
      <point x="516" y="385" type="curve"/>
    </contour>
  </outline>
</glyph>
<glyph name="H" format="1">
  <advance width="966"/>
  <unicode hex="0048"/>
  <outline>
    <contour>
      <point x="778" y="380" type="line"/>
      <point x="196" y="380" type="line"/>
      <point x="196" y="330" type="line"/>
      <point x="778" y="330" type="line"/>
    </contour>
    <contour>
      <point x="904" y="668" type="curve"/>
      <point x="904" y="703" type="line"/>
      <point x="847" y="697"/>
      <point x="720" y="697"/>
      <point x="614" y="703" type="curve"/>
      <point x="614" y="659" type="line"/>
      <point x="746" y="665"/>
      <point x="747" y="666"/>
      <point x="747" y="653" type="curve"/>
      <point x="747" y="442"/>
      <point x="755" y="255"/>
      <point x="748" y="55" type="curve"/>
      <point x="747" y="40"/>
      <point x="744" y="44"/>
      <point x="641" y="35" type="curve"/>
      <point x="641" y="-3" type="line"/>
      <point x="694" y="2"/>
      <point x="875" y="2"/>
      <point x="926" y="-3" type="curve"/>
      <point x="926" y="32" type="line"/>
      <point x="875" y="39"/>
      <point x="861" y="44"/>
      <point x="857" y="127" type="curve"/>
      <point x="851" y="257"/>
      <point x="855" y="440"/>
      <point x="859" y="610" type="curve"/>
      <point x="860" y="649"/>
      <point x="876" y="659"/>
    </contour>
    <contour>
      <point x="40" y="703" type="curve"/>
      <point x="40" y="668" type="line"/>
      <point x="117" y="659"/>
      <point x="133" y="659"/>
      <point x="136" y="540" type="curve"/>
      <point x="138" y="450"/>
      <point x="142" y="257"/>
      <point x="136" y="127" type="curve"/>
      <point x="132" y="44"/>
      <point x="128" y="40"/>
      <point x="44" y="33" type="curve"/>
      <point x="44" y="-3" type="line"/>
      <point x="128" y="2"/>
      <point x="229" y="2"/>
      <point x="344" y="-3" type="curve"/>
      <point x="344" y="33" type="line"/>
      <point x="249" y="42"/>
      <point x="246" y="40"/>
      <point x="245" y="55" type="curve"/>
      <point x="238" y="255"/>
      <point x="236" y="450"/>
      <point x="246" y="660" type="curve"/>
      <point x="246" y="658"/>
      <point x="259" y="661"/>
      <point x="341" y="666" type="curve"/>
      <point x="341" y="703" type="line"/>
      <point x="265" y="697"/>
      <point x="146" y="697"/>
    </contour>
  </outline>
</glyph>
<glyph name="L" format="1">
  <advance width="772"/>
  <unicode hex="004C"/>
  <outline>
    <contour>
      <point x="40" y="703" type="curve"/>
      <point x="40" y="669" type="line"/>
      <point x="121" y="664"/>
      <point x="130" y="668"/>
      <point x="132" y="620" type="curve"/>
      <point x="137" y="509"/>
      <point x="135" y="178"/>
      <point x="132" y="99" type="curve"/>
      <point x="130" y="42"/>
      <point x="131" y="42"/>
      <point x="48" y="30" type="curve"/>
      <point x="48" y="-5" type="line"/>
      <point x="216" y="0"/>
      <point x="423" y="8"/>
      <point x="615" y="-7" type="curve"/>
      <point x="670" y="48"/>
      <point x="715" y="108"/>
      <point x="752" y="175" type="curve"/>
      <point x="721" y="193" type="line"/>
      <point x="602" y="39"/>
      <point x="585" y="43"/>
      <point x="237" y="43" type="curve"/>
      <point x="232" y="148"/>
      <point x="233" y="552"/>
      <point x="237" y="611" type="curve"/>
      <point x="240" y="662"/>
      <point x="240" y="662"/>
      <point x="372" y="668" type="curve"/>
      <point x="372" y="703" type="line"/>
      <point x="256" y="699"/>
      <point x="144" y="699"/>
    </contour>
  </outline>
</glyph>
<glyph name="Q" format="1">
  <advance width="826"/>
  <unicode hex="0051"/>
  <outline>
    <contour>
      <point x="525" y="32" type="curve"/>
      <point x="344" y="5" type="line"/>
      <point x="449" y="-35"/>
      <point x="745" y="-273"/>
      <point x="944" y="-273" type="curve"/>
      <point x="1063" y="-273"/>
      <point x="1174" y="-244"/>
      <point x="1276" y="-208" type="curve"/>
      <point x="1261" y="-170" type="line"/>
      <point x="1206" y="-188"/>
      <point x="1136" y="-205"/>
      <point x="1050" y="-205" type="curve"/>
      <point x="837" y="-205"/>
      <point x="599" y="-35"/>
    </contour>
    <component base="O"/>
  </outline>
</glyph>
<glyph name="R" format="1">
  <advance width="976"/>
  <unicode hex="0052"/>
  <outline>
    <contour>
      <point x="40" y="685" type="curve"/>
      <point x="39" y="651" type="line"/>
      <point x="132" y="651"/>
      <point x="141" y="653"/>
      <point x="142" y="612" type="curve"/>
      <point x="146" y="453"/>
      <point x="153" y="246"/>
      <point x="142" y="91" type="curve"/>
      <point x="139" y="50"/>
      <point x="122" y="43"/>
      <point x="27" y="30" type="curve"/>
      <point x="27" y="-3" type="line"/>
      <point x="121" y="2"/>
      <point x="301" y="3"/>
      <point x="400" y="-3" type="curve"/>
      <point x="400" y="32" type="line"/>
      <point x="263" y="41"/>
      <point x="254" y="41"/>
      <point x="252" y="91" type="curve"/>
      <point x="247" y="213"/>
      <point x="256" y="551"/>
      <point x="263" y="662" type="curve"/>
      <point x="385" y="679"/>
      <point x="531" y="648"/>
      <point x="531" y="508" type="curve"/>
      <point x="531" y="378"/>
      <point x="415" y="335"/>
      <point x="239" y="335" type="curve"/>
      <point x="239" y="293" type="line"/>
      <point x="495" y="281"/>
      <point x="638" y="371"/>
      <point x="638" y="511" type="curve"/>
      <point x="638" y="621"/>
      <point x="555" y="703"/>
      <point x="385" y="703" type="curve"/>
      <point x="259" y="703"/>
      <point x="143" y="693"/>
    </contour>
    <contour>
      <point x="494" y="353" type="curve"/>
      <point x="395" y="315" type="line"/>
      <point x="497" y="121"/>
      <point x="609" y="-10"/>
      <point x="736" y="-10" type="curve"/>
      <point x="799" y="-10"/>
      <point x="899" y="15"/>
      <point x="956" y="39" type="curve"/>
      <point x="943" y="71" type="line"/>
      <point x="898" y="59"/>
      <point x="857" y="55"/>
      <point x="810" y="55" type="curve"/>
      <point x="662" y="55"/>
      <point x="544" y="234"/>
    </contour>
  </outline>
</glyph>
<glyph name="b" format="1">
  <advance width="486"/>
  <unicode hex="0062"/>
  <outline>
    <contour>
      <point x="49" y="31" type="curve"/>
      <point x="67" y="16"/>
      <point x="117" y="-10"/>
      <point x="177" y="-10" type="curve"/>
      <point x="301" y="-10"/>
      <point x="456" y="87"/>
      <point x="456" y="245" type="curve"/>
      <point x="456" y="387"/>
      <point x="338" y="442"/>
      <point x="290" y="442" type="curve"/>
      <point x="262" y="442"/>
      <point x="175" y="419"/>
      <point x="100" y="396" type="curve"/>
      <point x="111" y="370" type="line"/>
      <point x="245" y="395"/>
      <point x="372" y="362"/>
      <point x="372" y="207" type="curve"/>
      <point x="372" y="125"/>
      <point x="326" y="53"/>
      <point x="250" y="53" type="curve"/>
      <point x="164" y="53"/>
      <point x="134" y="81"/>
      <point x="134" y="319" type="curve"/>
      <point x="134" y="559"/>
      <point x="136" y="651"/>
      <point x="139" y="708" type="curve"/>
      <point x="5" y="700" type="line"/>
      <point x="5" y="670" type="line"/>
      <point x="38" y="658"/>
      <point x="50" y="651"/>
      <point x="50" y="608" type="curve"/>
      <point x="50" y="459"/>
      <point x="48" y="130"/>
    </contour>
  </outline>
</glyph>
<glyph name="e" format="1">
  <advance width="422"/>
  <unicode hex="0065"/>
  <outline>
    <contour>
      <point x="407" y="289" type="line"/>
      <point x="404" y="315" type="line"/>
      <point x="382" y="314"/>
      <point x="377" y="312"/>
      <point x="362" y="337" type="curve"/>
      <point x="332" y="387"/>
      <point x="291" y="440"/>
      <point x="227" y="440" type="curve"/>
      <point x="193" y="440"/>
      <point x="101" y="401"/>
      <point x="78" y="373" type="curve"/>
      <point x="46" y="334"/>
      <point x="30" y="268"/>
      <point x="30" y="202" type="curve"/>
      <point x="30" y="102"/>
      <point x="65" y="-10"/>
      <point x="185" y="-10" type="curve"/>
      <point x="255" y="-10"/>
      <point x="356" y="54"/>
      <point x="395" y="92" type="curve"/>
      <point x="380" y="115" type="line"/>
      <point x="339" y="89"/>
      <point x="281" y="65"/>
      <point x="235" y="65" type="curve"/>
      <point x="165" y="65"/>
      <point x="113" y="118"/>
      <point x="113" y="228" type="curve"/>
      <point x="113" y="321"/>
      <point x="144" y="379"/>
      <point x="184" y="379" type="curve"/>
      <point x="215" y="379"/>
      <point x="259" y="345"/>
      <point x="277" y="277" type="curve"/>
      <point x="277" y="299" type="line"/>
      <point x="105" y="275" type="line"/>
      <point x="110" y="247" type="line"/>
    </contour>
  </outline>
</glyph>
<glyph name="f" format="1">
  <advance width="350"/>
  <unicode hex="0066"/>
  <outline>
    <contour>
      <point x="77" y="263" type="curve"/>
      <point x="77" y="100" type="line"/>
      <point x="76" y="43"/>
      <point x="66" y="38"/>
      <point x="24" y="28" type="curve"/>
      <point x="24" y="-2" type="line"/>
      <point x="104" y="2"/>
      <point x="174" y="2"/>
      <point x="239" y="-2" type="curve"/>
      <point x="239" y="33" type="line"/>
      <point x="164" y="38"/>
      <point x="163" y="41"/>
      <point x="163" y="73" type="curve"/>
      <point x="158" y="568" type="line" smooth="yes"/>
      <point x="157" y="629"/>
      <point x="187" y="658"/>
      <point x="226" y="658" type="curve"/>
      <point x="266" y="658"/>
      <point x="304" y="620"/>
      <point x="328" y="550" type="curve"/>
      <point x="349" y="550" type="line"/>
      <point x="365" y="658" type="line"/>
      <point x="344" y="688"/>
      <point x="304" y="712"/>
      <point x="244" y="712" type="curve"/>
      <point x="180" y="712"/>
      <point x="129" y="653"/>
      <point x="86" y="606" type="curve"/>
      <point x="75" y="568"/>
      <point x="80" y="517"/>
      <point x="80" y="484" type="curve"/>
      <point x="80" y="412"/>
      <point x="64" y="380"/>
      <point x="37" y="343" type="curve"/>
      <point x="37" y="330" type="line"/>
      <point x="71" y="315"/>
      <point x="77" y="292"/>
    </contour>
    <contour>
      <point x="94" y="392" type="curve"/>
      <point x="94" y="335" type="line"/>
      <point x="173" y="337"/>
      <point x="252" y="336"/>
      <point x="331" y="330" type="curve"/>
      <point x="344" y="414" type="line"/>
      <point x="329" y="417" type="line"/>
      <point x="315" y="402"/>
      <point x="201" y="392"/>
    </contour>
  </outline>
</glyph>
<glyph name="l" format="1">
  <advance width="242"/>
  <unicode hex="006C"/>
  <outline>
    <contour>
      <point x="20" y="650" type="curve"/>
      <point x="15" y="685" type="line"/>
      <point x="206" y="710" type="line"/>
      <point x="211" y="675" type="line"/>
      <point x="163" y="667"/>
      <point x="155" y="663"/>
      <point x="154" y="630" type="curve"/>
      <point x="151" y="528"/>
      <point x="146" y="234"/>
      <point x="149" y="160" type="curve"/>
      <point x="152" y="75"/>
      <point x="169" y="65"/>
      <point x="225" y="65" type="curve"/>
      <point x="232" y="35" type="line"/>
      <point x="124" y="-10" type="line"/>
      <point x="97" y="-10"/>
      <point x="55" y="25"/>
      <point x="57" y="75" type="curve"/>
      <point x="60" y="145"/>
      <point x="69" y="471"/>
      <point x="67" y="568" type="curve"/>
      <point x="65" y="655"/>
      <point x="66" y="655"/>
    </contour>
  </outline>
</glyph>
<glyph name="m" format="1">
  <advance width="761"/>
  <unicode hex="006D"/>
  <outline>
    <contour>
      <point x="173" y="359" type="curve"/>
      <point x="165" y="389"/>
      <point x="133" y="432"/>
      <point x="87" y="440" type="curve"/>
      <point x="25" y="387" type="line"/>
      <point x="25" y="365" type="line"/>
      <point x="70" y="348"/>
      <point x="86" y="337"/>
      <point x="87" y="276" type="curve"/>
      <point x="89" y="170"/>
      <point x="84" y="81"/>
      <point x="75" y="0" type="curve"/>
      <point x="176" y="0" type="line"/>
      <point x="171" y="93"/>
      <point x="172" y="85"/>
    </contour>
    <contour>
      <point x="428" y="274" type="curve"/>
      <point x="426" y="353" type="line"/>
      <point x="414" y="396"/>
      <point x="377" y="440"/>
      <point x="308" y="440" type="curve"/>
      <point x="246" y="440"/>
      <point x="207" y="392"/>
      <point x="161" y="351" type="curve"/>
      <point x="173" y="310" type="line"/>
      <point x="187" y="339"/>
      <point x="218" y="365"/>
      <point x="263" y="365" type="curve"/>
      <point x="306" y="365"/>
      <point x="344" y="332"/>
      <point x="344" y="258" type="curve"/>
      <point x="344" y="138"/>
      <point x="340" y="49"/>
      <point x="335" y="0" type="curve"/>
      <point x="435" y="0" type="line"/>
      <point x="430" y="42"/>
      <point x="428" y="221"/>
    </contour>
    <contour>
      <point x="410" y="354" type="curve"/>
      <point x="427" y="315" type="line"/>
      <point x="440" y="344"/>
      <point x="472" y="365"/>
      <point x="517" y="365" type="curve"/>
      <point x="577" y="365"/>
      <point x="603" y="322"/>
      <point x="603" y="238" type="curve"/>
      <point x="603" y="133"/>
      <point x="590" y="58"/>
      <point x="563" y="6" type="curve"/>
      <point x="567" y="-8" type="line"/>
      <point x="618" y="2"/>
      <point x="665" y="1"/>
      <point x="736" y="-4" type="curve"/>
      <point x="736" y="31" type="line"/>
      <point x="694" y="41"/>
      <point x="684" y="51"/>
      <point x="679" y="75" type="curve"/>
      <point x="671" y="114"/>
      <point x="683" y="224"/>
      <point x="683" y="307" type="curve"/>
      <point x="683" y="389"/>
      <point x="651" y="440"/>
      <point x="579" y="440" type="curve"/>
      <point x="504" y="440"/>
      <point x="458" y="398"/>
    </contour>
  </outline>
</glyph>
<glyph name="o" format="1">
  <advance width="482"/>
  <unicode hex="006F"/>
  <outline>
    <contour>
      <point x="251" y="440" type="curve"/>
      <point x="131" y="440"/>
      <point x="30" y="334"/>
      <point x="30" y="204" type="curve"/>
      <point x="30" y="94"/>
      <point x="104" y="-10"/>
      <point x="234" y="-10" type="curve"/>
      <point x="354" y="-10"/>
      <point x="452" y="94"/>
      <point x="452" y="224" type="curve"/>
      <point x="452" y="345"/>
      <point x="382" y="440"/>
    </contour>
    <contour>
      <point x="261" y="56" type="curve"/>
      <point x="181" y="56"/>
      <point x="101" y="137"/>
      <point x="101" y="242" type="curve"/>
      <point x="101" y="319"/>
      <point x="153" y="372"/>
      <point x="223" y="372" type="curve"/>
      <point x="297" y="372"/>
      <point x="384" y="294"/>
      <point x="384" y="194" type="curve"/>
      <point x="384" y="110"/>
      <point x="337" y="56"/>
    </contour>
  </outline>
</glyph>
<glyph name="r" format="1">
  <advance width="412"/>
  <unicode hex="0072"/>
  <outline>
    <contour>
      <point x="67" y="0" type="curve"/>
      <point x="67" y="35" type="line"/>
      <point x="112" y="42"/>
      <point x="115" y="42"/>
      <point x="118" y="120" type="curve"/>
      <point x="118" y="125"/>
      <point x="118" y="159"/>
      <point x="118" y="232" type="curve"/>
      <point x="118" y="314"/>
      <point x="95" y="351"/>
      <point x="33" y="347" type="curve"/>
      <point x="25" y="370" type="line"/>
      <point x="63" y="395"/>
      <point x="118" y="425"/>
      <point x="146" y="440" type="curve"/>
      <point x="202" y="336" type="line"/>
      <point x="202" y="320" type="line"/>
      <point x="201" y="118" type="line" smooth="yes"/>
      <point x="201" y="47"/>
      <point x="201" y="41"/>
      <point x="253" y="35" type="curve"/>
      <point x="253" y="0" type="line"/>
      <point x="194" y="4"/>
      <point x="136" y="4"/>
    </contour>
    <contour>
      <point x="404" y="396" type="curve"/>
      <point x="407" y="384" type="line"/>
      <point x="330" y="296" type="line"/>
      <point x="278" y="320"/>
      <point x="252" y="325"/>
      <point x="195" y="301" type="curve"/>
      <point x="189" y="330" type="line"/>
      <point x="229" y="355"/>
      <point x="273" y="400"/>
      <point x="304" y="440" type="curve"/>
      <point x="334" y="421"/>
      <point x="362" y="401"/>
    </contour>
  </outline>
</glyph>
<glyph name="pamphyliandigamma" format="1">
  <advance width="483"/>
  <unicode hex="0377"/>
  <outline>
    <contour>
      <point x="141" y="457" type="curve"/>
      <point x="48" y="457" type="line"/>
      <point x="74" y="328"/>
      <point x="97" y="172"/>
      <point x="56" y="6" type="curve"/>
      <point x="83" y="-11" type="line"/>
      <point x="157" y="99"/>
      <point x="265" y="258"/>
      <point x="348" y="342" type="curve"/>
      <point x="333" y="347" type="line"/>
      <point x="325" y="263"/>
      <point x="325" y="97"/>
      <point x="325" y="0" type="curve"/>
      <point x="417" y="0" type="line"/>
      <point x="412" y="180"/>
      <point x="411" y="335"/>
      <point x="443" y="515" type="curve"/>
      <point x="406" y="519" type="line"/>
      <point x="350" y="421"/>
      <point x="231" y="257"/>
      <point x="135" y="147" type="curve"/>
      <point x="146" y="126" type="line"/>
      <point x="176" y="212"/>
      <point x="161" y="369"/>
    </contour>
  </outline>
</glyph>
<glyph name="upsilon" format="1">
  <advance width="526"/>
  <unicode hex="03C5"/>
  <outline>
    <contour>
      <point x="255" y="-10" type="line"/>
      <point x="222" y="-10" type="line"/>
      <point x="164" y="218"/>
      <point x="62" y="386"/>
      <point x="10" y="395" type="curve"/>
      <point x="10" y="430" type="line"/>
      <point x="116" y="430" type="line"/>
      <point x="173" y="383"/>
      <point x="243" y="224"/>
      <point x="277" y="117" type="curve"/>
      <point x="303" y="162"/>
      <point x="363" y="299"/>
      <point x="447" y="430" type="curve"/>
      <point x="516" y="430" type="line"/>
      <point x="516" y="405" type="line"/>
      <point x="493" y="391"/>
      <point x="455" y="343"/>
      <point x="422" y="284" type="curve"/>
    </contour>
  </outline>
</glyph>
<glyph name="rum" format="1">
  <advance width="602"/>
  <unicode hex="A775"/>
  <outline>
    <contour>
      <point x="-1" y="9" type="curve"/>
      <point x="18" y="-9" type="line"/>
      <point x="113" y="4"/>
      <point x="290" y="-4"/>
      <point x="404" y="-4" type="curve"/>
      <point x="557" y="-4" type="line"/>
      <point x="595" y="122" type="line"/>
      <point x="570" y="132" type="line"/>
      <point x="555" y="102"/>
      <point x="529" y="74"/>
      <point x="464" y="74" type="curve"/>
      <point x="267" y="74"/>
      <point x="131" y="72"/>
      <point x="79" y="73" type="curve"/>
      <point x="83" y="44" type="line"/>
      <point x="133" y="103"/>
      <point x="224" y="234"/>
      <point x="224" y="323" type="curve"/>
      <point x="224" y="388"/>
      <point x="165" y="443"/>
      <point x="93" y="443" type="curve"/>
      <point x="69" y="433"/>
      <point x="36" y="416"/>
      <point x="5" y="397" type="curve"/>
      <point x="11" y="375" type="line"/>
      <point x="89" y="371"/>
      <point x="146" y="320"/>
      <point x="146" y="246" type="curve"/>
      <point x="146" y="178"/>
      <point x="76" y="86"/>
    </contour>
    <contour>
      <point x="266" y="-261" type="line"/>
      <point x="323" y="-279" type="line"/>
      <point x="386" y="-209"/>
      <point x="433" y="-138"/>
      <point x="433" y="-21" type="curve"/>
      <point x="433" y="43"/>
      <point x="386" y="131"/>
      <point x="386" y="224" type="curve"/>
      <point x="386" y="290"/>
      <point x="426" y="341"/>
      <point x="483" y="341" type="curve"/>
      <point x="516" y="341"/>
      <point x="550" y="328"/>
      <point x="584" y="311" type="curve"/>
      <point x="600" y="322" type="line"/>
      <point x="591" y="396" type="line"/>
      <point x="555" y="431"/>
      <point x="508" y="440"/>
      <point x="474" y="440" type="curve"/>
      <point x="399" y="440"/>
      <point x="333" y="392"/>
      <point x="333" y="279" type="curve"/>
      <point x="333" y="171"/>
      <point x="391" y="63"/>
      <point x="391" y="-34" type="curve"/>
      <point x="391" y="-108"/>
      <point x="366" y="-203"/>
      <point x="266" y="-241" type="curve"/>
    </contour>
  </outline>
</glyph>
<glyph name="t_acute" format="1">
  <advance width="448"/>
  <unicode hex="E6E2"/>
  <outline>
    <contour>
      <point x="181" y="493" type="line"/>
      <point x="240" y="586" type="line"/>
      <point x="344" y="608"/>
      <point x="357" y="617"/>
      <point x="387" y="662" type="curve"/>
      <point x="422" y="657" type="line"/>
      <point x="398" y="621"/>
      <point x="376" y="573"/>
      <point x="355" y="530" type="curve"/>
      <point x="280" y="526"/>
      <point x="225" y="512"/>
      <point x="202" y="478" type="curve"/>
    </contour>
    <contour>
      <point x="127" y="161" type="curve"/>
      <point x="127" y="361"/>
      <point x="141" y="432"/>
      <point x="156" y="475" type="curve"/>
      <point x="139" y="483" type="line"/>
      <point x="108" y="460"/>
      <point x="66" y="427"/>
      <point x="61" y="427" type="curve"/>
      <point x="26" y="424" type="line"/>
      <point x="25" y="421" type="line"/>
      <point x="48" y="357" type="line"/>
      <point x="47" y="308"/>
      <point x="45" y="198"/>
      <point x="45" y="112" type="curve"/>
      <point x="45" y="17"/>
      <point x="98" y="-10"/>
      <point x="174" y="-10" type="curve"/>
      <point x="245" y="-10"/>
      <point x="334" y="53"/>
      <point x="381" y="96" type="curve"/>
      <point x="371" y="111" type="line"/>
      <point x="333" y="90"/>
      <point x="254" y="65"/>
      <point x="218" y="65" type="curve"/>
      <point x="149" y="65"/>
      <point x="127" y="97"/>
    </contour>
    <contour>
      <point x="368" y="429" type="line"/>
      <point x="108" y="429" type="line"/>
      <point x="108" y="365" type="line"/>
      <point x="179" y="369"/>
      <point x="292" y="369"/>
      <point x="367" y="365" type="curve"/>
    </contour>
  </outline>
</glyph>
<glyph name="q_etfin" format="1">
  <advance width="670"/>
  <unicode hex="E8BF"/>
  <outline>
    <contour>
      <point x="554" y="383" type="curve"/>
      <point x="548" y="415"/>
      <point x="573" y="440"/>
      <point x="602" y="440" type="curve"/>
      <point x="632" y="440"/>
      <point x="650" y="420"/>
      <point x="650" y="390" type="curve"/>
      <point x="650" y="345"/>
      <point x="614" y="301"/>
      <point x="566" y="249" type="curve"/>
      <point x="546" y="264" type="line"/>
      <point x="564" y="286"/>
      <point x="582" y="323"/>
      <point x="582" y="351" type="curve"/>
      <point x="582" y="371"/>
      <point x="574" y="383"/>
    </contour>
    <contour>
      <point x="545" y="132" type="curve"/>
      <point x="561" y="153"/>
      <point x="588" y="166"/>
      <point x="601" y="166" type="curve"/>
      <point x="619" y="166"/>
      <point x="636" y="142"/>
      <point x="636" y="110" type="curve"/>
      <point x="636" y="72"/>
      <point x="611" y="30"/>
      <point x="570" y="-10" type="curve"/>
      <point x="552" y="2" type="line"/>
      <point x="567" y="33"/>
      <point x="573" y="58"/>
      <point x="573" y="73" type="curve"/>
      <point x="573" y="98"/>
      <point x="562" y="119"/>
    </contour>
    <contour>
      <point x="443" y="123" type="curve"/>
      <point x="422" y="160" type="line"/>
      <point x="405" y="106"/>
      <point x="332" y="56"/>
      <point x="269" y="56" type="curve"/>
      <point x="177" y="56"/>
      <point x="116" y="122"/>
      <point x="116" y="230" type="curve"/>
      <point x="116" y="326"/>
      <point x="171" y="392"/>
      <point x="275" y="392" type="curve"/>
      <point x="357" y="392"/>
      <point x="407" y="336"/>
      <point x="408" y="234" type="curve"/>
      <point x="410" y="129" type="line"/>
      <point x="410" y="113" type="line" smooth="yes"/>
      <point x="412" y="-89"/>
      <point x="408" y="-201"/>
      <point x="406" y="-225" type="curve"/>
      <point x="403" y="-256"/>
      <point x="401" y="-264"/>
      <point x="354" y="-268" type="curve"/>
      <point x="354" y="-303" type="line"/>
      <point x="396" y="-300"/>
      <point x="495" y="-299"/>
      <point x="557" y="-303" type="curve"/>
      <point x="557" y="-268" type="line"/>
      <point x="510" y="-262"/>
      <point x="507" y="-261"/>
      <point x="504" y="-213" type="curve"/>
      <point x="499" y="-122"/>
      <point x="495" y="62"/>
      <point x="497" y="244" type="curve"/>
      <point x="498" y="363"/>
      <point x="510" y="383"/>
      <point x="522" y="430" type="curve"/>
      <point x="514" y="440" type="line"/>
      <point x="488" y="434"/>
      <point x="467" y="432"/>
      <point x="437" y="432" type="curve"/>
      <point x="391" y="432"/>
      <point x="328" y="441"/>
      <point x="266" y="441" type="curve"/>
      <point x="136" y="441"/>
      <point x="30" y="347"/>
      <point x="30" y="197" type="curve"/>
      <point x="30" y="97"/>
      <point x="83" y="-10"/>
      <point x="213" y="-10" type="curve"/>
      <point x="342" y="-10"/>
      <point x="392" y="69"/>
    </contour>
  </outline>
</glyph>
<glyph name="longs_f" format="1">
  <advance width="593"/>
  <outline>
    <contour>
      <point x="320" y="263" type="curve"/>
      <point x="318" y="0" type="line"/>
      <point x="408" y="0" type="line"/>
      <point x="401" y="568" type="line" smooth="yes"/>
      <point x="400" y="629"/>
      <point x="430" y="658"/>
      <point x="469" y="658" type="curve"/>
      <point x="509" y="658"/>
      <point x="547" y="620"/>
      <point x="571" y="550" type="curve"/>
      <point x="592" y="550" type="line"/>
      <point x="608" y="658" type="line"/>
      <point x="587" y="688"/>
      <point x="547" y="712"/>
      <point x="487" y="712" type="curve"/>
      <point x="423" y="712"/>
      <point x="372" y="653"/>
      <point x="329" y="606" type="curve"/>
      <point x="318" y="568"/>
      <point x="323" y="517"/>
      <point x="323" y="484" type="curve"/>
      <point x="323" y="412"/>
      <point x="307" y="380"/>
      <point x="280" y="343" type="curve"/>
      <point x="280" y="330" type="line"/>
      <point x="314" y="315"/>
      <point x="320" y="292"/>
    </contour>
    <contour>
      <point x="337" y="392" type="curve"/>
      <point x="337" y="335" type="line"/>
      <point x="416" y="337"/>
      <point x="495" y="336"/>
      <point x="574" y="330" type="curve"/>
      <point x="587" y="414" type="line"/>
      <point x="572" y="417" type="line"/>
      <point x="558" y="402"/>
      <point x="444" y="392"/>
    </contour>
    <component base="longs"/>
  </outline>
</glyph>
<glyph name="longs_longs_i" format="1">
  <advance width="649"/>
  <outline>
    <contour>
      <point x="63" y="0" type="curve"/>
      <point x="159" y="0" type="line"/>
      <point x="148" y="188"/>
      <point x="144" y="357"/>
      <point x="144" y="511" type="curve"/>
      <point x="144" y="584"/>
      <point x="171" y="625"/>
      <point x="221" y="625" type="curve"/>
      <point x="267" y="625"/>
      <point x="307" y="593"/>
      <point x="314" y="552" type="curve"/>
      <point x="373" y="607" type="line"/>
      <point x="345" y="654"/>
      <point x="314" y="682"/>
      <point x="257" y="682" type="curve"/>
      <point x="164" y="682"/>
      <point x="88" y="582"/>
      <point x="78" y="494" type="curve"/>
      <point x="66" y="391"/>
      <point x="61" y="406"/>
      <point x="35" y="383" type="curve"/>
      <point x="35" y="372" type="line"/>
      <point x="48" y="363"/>
      <point x="67" y="341"/>
      <point x="67" y="303" type="curve"/>
      <point x="67" y="166"/>
      <point x="65" y="86"/>
    </contour>
    <component base="i" xOffset="402"/>
    <component base="longs" xOffset="222"/>
  </outline>
</glyph>
<glyph name="r.ss01" format="1">
  <advance width="333"/>
  <outline>
    <contour>
      <point x="126" y="0" type="curve"/>
      <point x="31" y="-4" type="line"/>
      <point x="36" y="142"/>
      <point x="37" y="295"/>
      <point x="25" y="430" type="curve"/>
      <point x="121" y="430" type="line"/>
      <point x="123" y="366" type="line"/>
      <point x="123" y="350" type="line"/>
      <point x="123" y="243"/>
      <point x="124" y="107"/>
    </contour>
    <contour>
      <point x="325" y="406" type="curve"/>
      <point x="328" y="394" type="line"/>
      <point x="231" y="310" type="line"/>
      <point x="201" y="330"/>
      <point x="173" y="355"/>
      <point x="116" y="331" type="curve"/>
      <point x="110" y="360" type="line"/>
      <point x="150" y="385"/>
      <point x="181" y="407"/>
      <point x="215" y="440" type="curve"/>
      <point x="245" y="421"/>
      <point x="283" y="411"/>
    </contour>
  </outline>
</glyph>
